<svg xmlns="http://www.w3.org/2000/svg" viewBox="0 0 1000 1000"><defs><style>.cls-1{font-size:28.01px;font-family:CalisMTBol, Calisto MT;}.cls-2{letter-spacing:-0.05em;}.cls-3{letter-spacing:0em;}.cls-4{fill:#0596f8;}.cls-5{fill:#fff;}.cls-6{fill:#1a1a1a;}.cls-7{fill:#0c98f9;}</style></defs><g id="Upper_Lid" data-name="Upper Lid"><text class="cls-1" transform="translate(284.81 596.55)"><tspan xml:space="preserve">WE KEEP AN      OUT FOR </tspan><tspan class="cls-2" x="365.51" y="0">Y</tspan><tspan class="cls-3" x="385.13" y="0">OU</tspan></text><path d="M490.63,598.5a20.29,20.29,0,0,1-14.47-6,1.1,1.1,0,0,1,1.56-1.56,18.12,18.12,0,0,0,13.17,5.32,19.22,19.22,0,0,0,13.35-5.68,1.1,1.1,0,0,1,1.56,0,1.09,1.09,0,0,1,0,1.55,21.33,21.33,0,0,1-14.88,6.33Z"/><circle class="cls-4" cx="490.98" cy="586.89" r="8.61"/><circle class="cls-5" cx="490.98" cy="586.89" r="3.84"/><circle class="cls-4" cx="488.41" cy="584.08" r="2.57"/><circle class="cls-6" cx="488.41" cy="584.08" r="1.46"/><path d="M476.94,583.49a1.13,1.13,0,0,1-.78-.32,1.1,1.1,0,0,1,0-1.56A21.33,21.33,0,0,1,491,575.28a20.32,20.32,0,0,1,14.76,6,1.1,1.1,0,0,1-1.56,1.56,18.12,18.12,0,0,0-13.17-5.32,19.18,19.18,0,0,0-13.35,5.69A1.13,1.13,0,0,1,476.94,583.49Z"/><path d="M431.74,546.78a52.55,52.55,0,0,1-37.47-15.44,2.85,2.85,0,0,1,4-4,46.94,46.94,0,0,0,34.1,13.76A49.64,49.64,0,0,0,467,526.36a2.85,2.85,0,0,1,4,4,55.29,55.29,0,0,1-38.53,16.38Z"/><circle class="cls-4" cx="432.63" cy="516.71" r="22.3"/><circle class="cls-5" cx="432.63" cy="516.71" r="9.94"/><circle class="cls-4" cx="425.99" cy="509.44" r="6.64"/><circle class="cls-6" cx="425.99" cy="509.44" r="3.79"/><path d="M396.28,507.9a2.85,2.85,0,0,1-2-4.87,55.29,55.29,0,0,1,38.53-16.38A52.58,52.58,0,0,1,471,502.08a2.85,2.85,0,1,1-4,4,46.92,46.92,0,0,0-34.1-13.75,49.6,49.6,0,0,0-34.57,14.71A2.88,2.88,0,0,1,396.28,507.9Z"/><path d="M396.69,459,372,546.44a.45.45,0,0,1-.44.34H360a.47.47,0,0,1-.45-.34l-18.85-70.39a.46.46,0,0,0-.89,0L321.7,546.43a.46.46,0,0,1-.44.35H309.83a.47.47,0,0,1-.45-.34L284.87,459a.46.46,0,0,1,.45-.58h8.09a.46.46,0,0,1,.45.33L315,533.34a.46.46,0,0,0,.89,0l20.33-74.63a.45.45,0,0,1,.44-.34h7.44a.46.46,0,0,1,.45.33l21,74.31a.46.46,0,0,0,.88,0l20.43-74.3a.47.47,0,0,1,.44-.34h8.94A.46.46,0,0,1,396.69,459Z"/><path d="M580,527.77l-.09.19,0,.08Q569.55,547,548,546.81a34.73,34.73,0,0,1-24.54-10,33.51,33.51,0,0,1-.29-48.33,35.78,35.78,0,0,1,44.09-5,30.68,30.68,0,0,1,12.16,13.3L580,498a1.21,1.21,0,0,1-1.1,1.69h-7.36a1.2,1.2,0,0,1-1-.59Q563.1,487,548.3,486.61q-10.11-.24-18.16,7.35-8.39,7.82-8.38,18.5a24.71,24.71,0,0,0,7.81,18.33,25.12,25.12,0,0,0,18.5,7.53q14.92-.23,22.51-11.72a1.19,1.19,0,0,1,1-.55h7.33A1.2,1.2,0,0,1,580,527.77Z"/><path d="M745.36,546.78H736.3V506.64a19.92,19.92,0,0,0-4.36-12.95,14,14,0,0,0-11.46-5.39A17.94,17.94,0,0,0,708,493a15.08,15.08,0,0,0-5.21,11.69v42.09h-9.18V504.69A15.11,15.11,0,0,0,688.43,493,17.94,17.94,0,0,0,676,488.3a13.75,13.75,0,0,0-11.36,5.33,20.22,20.22,0,0,0-4.24,13v40.14h-9.06v-39.1q0-12.27,7-19.73,6.52-7,17.2-7.91,14.21-1.14,22.7,12.15,8.49-13.29,22.7-12.15,10.67.91,17.32,7.91,7.11,7.46,7.11,19.73Z"/><path d="M821.84,512.54v32.79h-8.71v-10.2q-10.64,12.15-26,11.7a32.12,32.12,0,0,1-23-10.44,33.23,33.23,0,0,1-9.48-23.74,33.65,33.65,0,0,1,10.2-24.59,31.35,31.35,0,0,1,24.43-9.69,32.83,32.83,0,0,1,23.39,10.49A31.42,31.42,0,0,1,821.84,512.54Zm-8.71-.63a25.41,25.41,0,0,0-7.36-17.7,23,23,0,0,0-17.12-7.36,24.28,24.28,0,0,0-17.82,7.36A24.69,24.69,0,0,0,763.36,512a25.16,25.16,0,0,0,6.84,18.1,23.86,23.86,0,0,0,17.07,8.22,23.1,23.1,0,0,0,18.44-7.53A25.58,25.58,0,0,0,813.13,511.91Z"/><path d="M888.69,546.78H880V508.59a19.28,19.28,0,0,0-6.06-14.22,19.86,19.86,0,0,0-28.37,0,19.3,19.3,0,0,0-6,14.22v38.19h-8.72V509.51q0-12.74,8.26-21.16t20.76-8.42a27.75,27.75,0,0,1,20.64,8.42q8.25,8.43,8.25,21.16Z"/><path d="M491.62,546.69h-6.38a1.2,1.2,0,0,1-1.2-1.2V489.83a1.2,1.2,0,0,0-1.21-1.2H470.76a1.21,1.21,0,0,1-1.2-1.21V481a1.2,1.2,0,0,1,1.2-1.2h12.07a1.21,1.21,0,0,0,1.21-1.21v-20.4a1.21,1.21,0,0,1,1.2-1.21h6.32a1.21,1.21,0,0,1,1.2,1.21v20.4a1.21,1.21,0,0,0,1.2,1.21h12.73a1.2,1.2,0,0,1,1.2,1.2v5.74a1.2,1.2,0,0,1-1.2,1.2H494a1.21,1.21,0,0,0-1.21,1.21l.06,56.3A1.2,1.2,0,0,1,491.62,546.69Z"/><path class="cls-7" d="M630.26,376.44a8.53,8.53,0,0,0-11.61,3L604.8,402.13A8.59,8.59,0,0,0,607.7,414l27.74,16.69-15.17,24.87H593.83V426.23h-8.55V546.78H594V508a18.24,18.24,0,0,1,5.72-13.82,20.11,20.11,0,0,1,14.06-5.56,19,19,0,0,1,14.34,5.79,19.37,19.37,0,0,1,6.13,14.28v38.07H643V509.62a28.51,28.51,0,0,0-8.79-21.21,27,27,0,0,0-21-8Q601.47,481,594,490.71V461.22h29.47l16.85-27.63L688,462.3a8.5,8.5,0,0,0,4.41,1.24,8.77,8.77,0,0,0,2.21-.29,8.51,8.51,0,0,0,5.29-4.09l14.45-25.78a.87.87,0,0,1,1.18-.33l18.35,10.56a1.7,1.7,0,0,0,2.32-.62l1.55-2.7a1.7,1.7,0,0,0-.62-2.32Zm64,79.53a2.07,2.07,0,0,1-1.28,1,2,2,0,0,1-1.6-.23l-80.31-48.35a2,2,0,0,1-.94-1.28,2.06,2.06,0,0,1,.24-1.57l13.85-22.72a2,2,0,0,1,1.76-1,2.15,2.15,0,0,1,1,.27L708.41,429a.85.85,0,0,1,.32,1.16Z"/><path class="cls-7" d="M712.37,462.32a2.85,2.85,0,0,1-2.44-4.33l6.5-10.72a2.85,2.85,0,1,1,4.88,3L714.81,461A2.86,2.86,0,0,1,712.37,462.32Z"/><path d="M200.86,547.11h-6.64a1.08,1.08,0,0,1-1.08-1.08V475.59a1.08,1.08,0,0,0-2.07-.42l-30.72,71.29a1.09,1.09,0,0,1-1,.65h-5.91a1.08,1.08,0,0,1-1-.66L122.3,475.37a1.08,1.08,0,0,0-2.07.42V546a1.08,1.08,0,0,1-1.08,1.08h-6.76a1.08,1.08,0,0,1-1.08-1.08V461.28a1.08,1.08,0,0,1,1.08-1.08h12a1.08,1.08,0,0,1,1,.66l29.87,71.8a1.08,1.08,0,0,0,2,0l31.06-71.83a1.09,1.09,0,0,1,1-.65h11.61a1.08,1.08,0,0,1,1.08,1.08V546A1.08,1.08,0,0,1,200.86,547.11Z"/><path d="M268.92,484.27l-35.55,84.64a1.08,1.08,0,0,1-1,.66H225.5a1.09,1.09,0,0,1-1-1.48l8.92-22.56a1.1,1.1,0,0,0,0-.8l-23.89-60.48a1.09,1.09,0,0,1,1-1.48h7a1.09,1.09,0,0,1,1,.68l19.33,48.09a1.08,1.08,0,0,0,2,0l20.44-48.13a1.09,1.09,0,0,1,1-.66h6.6A1.08,1.08,0,0,1,268.92,484.27Z"/></g></svg>